<svg xmlns="http://www.w3.org/2000/svg" width="40" height="40" viewBox="0 0 40 40">
  <g id="btn_send" transform="translate(-649 -12)">
    <circle id="楕円形_19" data-name="楕円形 19" cx="20" cy="20" r="20" transform="translate(649 12)" fill="#01a0e2"/>
    <path id="パス_465" data-name="パス 465" d="M221,345.324a1.1,1.1,0,0,1,.708-.345q11.949-2.548,23.892-5.1a1.316,1.316,0,0,1,.912.063c.272.144.272.315.168.505q-3.03,5.548-6.052,11.1c-.218.4-.746.5-1.344.249l-6.519-2.708c-.067-.028-.135-.054-.224-.089-.048.051-.09.094-.13.138l-2.6,2.886a1.314,1.314,0,0,1-.145.148,1.1,1.1,0,0,1-.818.168c-.29-.042-.517-.191-.548-.365a.855.855,0,0,1-.005-.155c0-1.459,0-2.918,0-4.377,0-.111-.053-.161-.244-.2-2.126-.454-4.245-.917-6.371-1.371a1.055,1.055,0,0,1-.683-.341Zm12.4,2.97,6.051,2.513,4.849-8.9-.058-.015Zm-9.515-2.875c.083.023.133.039.186.05q2.353.509,4.7,1.02a.537.537,0,0,0,.361-.044l11.259-4.489c.062-.025.12-.052.18-.079l-.022-.02Zm5.915,4.663.05.006c.038-.041.077-.081.114-.122.524-.581,1.046-1.163,1.575-1.742a1.2,1.2,0,0,1,.274-.216q3.955-2.341,7.915-4.678c.056-.033.108-.068.162-.1a.226.226,0,0,0-.114.014q-4.922,1.961-9.838,3.926a.214.214,0,0,0-.132.174c-.009.807-.006,1.613-.006,2.42Z" transform="translate(435 -314.824)" fill="#fff"/>
  </g>
</svg>
