<svg xmlns="http://www.w3.org/2000/svg" xmlns:xlink="http://www.w3.org/1999/xlink" width="48" height="48" viewBox="0 0 48 48">
  <defs>
    <clipPath id="clip-path">
      <path id="パス_486" data-name="パス 486" d="M16.747,34.013l3.586-4.938-.721-13.159H4.6V40.5H14.48Z" fill="none" stroke="#707070" stroke-width="1"/>
    </clipPath>
  </defs>
  <g id="img_group_sample" transform="translate(-24 -72)">
    <circle id="楕円形_94" data-name="楕円形 94" cx="24" cy="24" r="24" transform="translate(24 72)" fill="#f7f7f7"/>
    <g id="グループ_883" data-name="グループ 883" transform="translate(-122.25 -39.349)">
      <g id="グループ_882" data-name="グループ 882" transform="translate(152.25 104.376)">
        <g id="グループ_294" data-name="グループ 294">
          <g id="コンポーネント_20_13" data-name="コンポーネント 20 – 13" transform="translate(2 17.973)">
            <g id="グループ_958" data-name="グループ 958" transform="translate(-3.597 -15.917)">
              <path id="楕円形_13" data-name="楕円形 13" d="M1.086-3A4.086,4.086,0,1,1-3,1.086,4.091,4.091,0,0,1,1.086-3Zm0,6.42A2.333,2.333,0,1,0-1.247,1.086,2.336,2.336,0,0,0,1.086,3.42Z" transform="translate(24.097 23.214)" fill="#999"/>
              <path id="パス_149" data-name="パス 149" d="M-143.5-31.485a.876.876,0,0,1-.876-.876,7.692,7.692,0,0,0-7.683-7.683,7.692,7.692,0,0,0-7.683,7.683.876.876,0,0,1-.876.876.876.876,0,0,1-.876-.876,9.447,9.447,0,0,1,9.436-9.436,9.447,9.447,0,0,1,9.436,9.436A.876.876,0,0,1-143.5-31.485Z" transform="translate(177.247 71.55)" fill="#999"/>
            </g>
            <g id="マスクグループ_7" data-name="マスクグループ 7" transform="translate(-4.597 -15.917)" clip-path="url(#clip-path)">
              <g id="グループ_959" data-name="グループ 959" transform="translate(-11)">
                <path id="楕円形_13-2" data-name="楕円形 13" d="M1.086-3A4.086,4.086,0,1,1-3,1.086,4.091,4.091,0,0,1,1.086-3Zm0,6.42A2.333,2.333,0,1,0-1.247,1.086,2.336,2.336,0,0,0,1.086,3.42Z" transform="translate(24.097 23.214)" fill="#999"/>
                <path id="パス_149-2" data-name="パス 149" d="M-143.5-31.485a.876.876,0,0,1-.876-.876,7.692,7.692,0,0,0-7.683-7.683,7.692,7.692,0,0,0-7.683,7.683.876.876,0,0,1-.876.876.876.876,0,0,1-.876-.876,9.447,9.447,0,0,1,9.436-9.436,9.447,9.447,0,0,1,9.436,9.436A.876.876,0,0,1-143.5-31.485Z" transform="translate(177.247 71.55)" fill="#999"/>
              </g>
            </g>
          </g>
        </g>
      </g>
    </g>
  </g>
</svg>
